ffmpeg started on 2016-12-07 at 00:19:58
Report written to "Output/x264/results/ffmpeg/crowd_run_2160p50medium11000k.log"
Command line:
Tools/ffmpeg/ffmpeg -benchmark -y -i Input/y4m/crowd_run_2160p50.y4m -c:v libx264 -preset medium -b:v 11000k -an Output/x264/encoded/crowd_run_2160p50medium11000k.mkv
ffmpeg version N-82227-gdb23fde Copyright (c) 2000-2016 the FFmpeg developers
  built with gcc 5.4.0 (Ubuntu 5.4.0-6ubuntu1~16.04.2) 20160609
  configuration: --prefix=/home/jaroslav/ffmpeg_build --pkg-config-flags=--static --extra-cflags=-I/home/jaroslav/ffmpeg_build/include --extra-ldflags=-L/home/jaroslav/ffmpeg_build/lib --bindir=/home/jaroslav/bin --enable-gpl --enable-libass --enable-libfdk-aac --enable-libfreetype --enable-libmp3lame --enable-libopus --enable-libtheora --enable-libvorbis --enable-libvpx --enable-libx264 --enable-libx265 --enable-nvenc --enable-libmfx --enable-libxvid --enable-libgsm --enable-libopencore-amrnb --enable-version3 --enable-nonfree
  libavutil      55. 35.100 / 55. 35.100
  libavcodec     57. 66.101 / 57. 66.101
  libavformat    57. 57.100 / 57. 57.100
  libavdevice    57.  2.100 / 57.  2.100
  libavfilter     6. 66.100 /  6. 66.100
  libswscale      4.  3.100 /  4.  3.100
  libswresample   2.  4.100 /  2.  4.100
  libpostproc    54.  2.100 / 54.  2.100
Input #0, yuv4mpegpipe, from 'Input/y4m/crowd_run_2160p50.y4m':
  Duration: 00:00:10.00, start: 0.000000, bitrate: 4976642 kb/s
    Stream #0:0: Video: rawvideo (I420 / 0x30323449), yuv420p(progressive), 3840x2160, SAR 1:1 DAR 16:9, 50 fps, 50 tbr, 50 tbn, 50 tbc
[libx264 @ 0x34491c0] using SAR=1/1
[libx264 @ 0x34491c0] using cpu capabilities: MMX2 SSE2Fast SSSE3 SSE4.2 AVX FMA3 AVX2 LZCNT BMI2
[libx264 @ 0x34491c0] profile High, level 5.2
[libx264 @ 0x34491c0] 264 - core 148 - H.264/MPEG-4 AVC codec - Copyleft 2003-2016 - http://www.videolan.org/x264.html - options: cabac=1 ref=3 deblock=1:0:0 analyse=0x3:0x113 me=hex subme=7 psy=1 psy_rd=1.00:0.00 mixed_ref=1 me_range=16 chroma_me=1 trellis=1 8x8dct=1 cqm=0 deadzone=21,11 fast_pskip=1 chroma_qp_offset=-2 threads=6 lookahead_threads=1 sliced_threads=0 nr=0 decimate=1 interlaced=0 bluray_compat=0 constrained_intra=0 bframes=3 b_pyramid=2 b_adapt=1 b_bias=0 direct=1 weightb=1 open_gop=0 weightp=2 keyint=250 keyint_min=25 scenecut=40 intra_refresh=0 rc_lookahead=40 rc=abr mbtree=1 bitrate=11000 ratetol=1.0 qcomp=0.60 qpmin=0 qpmax=69 qpstep=4 ip_ratio=1.40 aq=1:1.00
Output #0, matroska, to 'Output/x264/encoded/crowd_run_2160p50medium11000k.mkv':
  Metadata:
    encoder         : Lavf57.57.100
    Stream #0:0: Video: h264 (libx264) (H264 / 0x34363248), yuv420p, 3840x2160 [SAR 1:1 DAR 16:9], q=-1--1, 11000 kb/s, 50 fps, 1k tbn, 50 tbc
    Metadata:
      encoder         : Lavc57.66.101 libx264
    Side data:
      cpb: bitrate max/min/avg: 0/0/11000000 buffer size: 0 vbv_delay: -1
Stream mapping:
  Stream #0:0 -> #0:0 (rawvideo (native) -> h264 (libx264))
Press [q] to stop, [?] for help
frame=   17 fps=0.0 q=0.0 size=       0kB time=00:00:00.00 bitrate=N/A speed=   0x    frame=   34 fps= 21 q=0.0 size=       0kB time=00:00:00.00 bitrate=N/A speed=   0x    frame=   38 fps= 17 q=0.0 size=       0kB time=00:00:00.00 bitrate=N/A speed=   0x    frame=   47 fps= 10 q=0.0 size=       0kB time=00:00:00.00 bitrate=N/A speed=   0x    frame=   52 fps=9.7 q=34.0 size=       1kB time=-00:00:00.01 bitrate=N/A speed=N/A    frame=   55 fps=9.4 q=43.0 size=       1kB time=00:00:00.04 bitrate= 143.2kbits/s speed=0.00701x    frame=   60 fps=9.3 q=47.0 size=       1kB time=00:00:00.14 bitrate=  41.6kbits/s speed=0.0219x    frame=   63 fps=9.1 q=49.0 size=       1kB time=00:00:00.20 bitrate=  29.2kbits/s speed=0.0289x    frame=   69 fps=9.2 q=49.0 size=       1kB time=00:00:00.32 bitrate=  18.3kbits/s speed=0.0429x    frame=   77 fps=9.4 q=48.0 size=       1kB time=00:00:00.48 bitrate=  12.2kbits/s speed=0.059x    frame=   85 fps=9.6 q=48.0 size=       1kB time=00:00:00.64 bitrate=   9.2kbits/s speed=0.0722x    frame=   93 fps=9.8 q=48.0 size=       1kB time=00:00:00.80 bitrate=   7.3kbits/s speed=0.0841x    frame=  100 fps= 10 q=48.0 size=       1kB time=00:00:00.94 bitrate=   6.2kbits/s speed=0.0938x    frame=  105 fps=9.9 q=47.0 size=       1kB time=00:00:01.04 bitrate=   5.6kbits/s speed=0.0977x    frame=  113 fps= 10 q=47.0 size=       1kB time=00:00:01.20 bitrate=   4.9kbits/s speed=0.107x    frame=  117 fps= 10 q=47.0 size=       1kB time=00:00:01.28 bitrate=   4.6kbits/s speed=0.109x    frame=  125 fps= 10 q=47.0 size=       1kB time=00:00:01.44 bitrate=   4.1kbits/s speed=0.117x    frame=  130 fps= 10 q=47.0 size=       1kB time=00:00:01.54 bitrate=   3.8kbits/s speed=0.12x    frame=  135 fps= 10 q=46.0 size=       1kB time=00:00:01.64 bitrate=   3.6kbits/s speed=0.123x    frame=  141 fps= 10 q=46.0 size=       1kB time=00:00:01.76 bitrate=   3.3kbits/s speed=0.126x    frame=  147 fps= 10 q=46.0 size=       1kB time=00:00:01.88 bitrate=   3.1kbits/s speed=0.129x    frame=  151 fps= 10 q=46.0 size=       1kB time=00:00:01.96 bitrate=   3.0kbits/s speed=0.13x    frame=  157 fps= 10 q=46.0 size=       1kB time=00:00:02.08 bitrate=   2.8kbits/s speed=0.133x    frame=  164 fps= 10 q=46.0 size=       1kB time=00:00:02.22 bitrate=   2.6kbits/s speed=0.135x    frame=  170 fps= 10 q=46.0 size=       1kB time=00:00:02.34 bitrate=   2.5kbits/s speed=0.138x    frame=  178 fps= 10 q=46.0 size=       1kB time=00:00:02.50 bitrate=   2.3kbits/s speed=0.142x    frame=  182 fps= 10 q=46.0 size=       1kB time=00:00:02.58 bitrate=   2.3kbits/s speed=0.142x    frame=  189 fps= 10 q=46.0 size=       1kB time=00:00:02.72 bitrate=   2.2kbits/s speed=0.144x    frame=  197 fps= 10 q=46.0 size=       1kB time=00:00:02.88 bitrate=   2.0kbits/s speed=0.147x    frame=  202 fps= 10 q=46.0 size=       1kB time=00:00:02.98 bitrate=   2.0kbits/s speed=0.148x    frame=  208 fps= 10 q=46.0 size=       1kB time=00:00:03.10 bitrate=   1.9kbits/s speed=0.15x    frame=  213 fps= 10 q=46.0 size=       1kB time=00:00:03.20 bitrate=   1.8kbits/s speed=0.151x    frame=  221 fps= 10 q=46.0 size=       1kB time=00:00:03.36 bitrate=   1.7kbits/s speed=0.154x    frame=  226 fps= 10 q=46.0 size=       1kB time=00:00:03.46 bitrate=   1.7kbits/s speed=0.154x    frame=  232 fps= 10 q=46.0 size=    5151kB time=00:00:03.58 bitrate=11782.5kbits/s speed=0.156x    frame=  237 fps= 10 q=46.0 size=    5151kB time=00:00:03.68 bitrate=11462.4kbits/s speed=0.157x    frame=  244 fps= 10 q=45.0 size=    5151kB time=00:00:03.82 bitrate=11042.4kbits/s speed=0.159x    frame=  249 fps= 10 q=45.0 size=    5151kB time=00:00:03.92 bitrate=10760.8kbits/s speed=0.159x    frame=  254 fps= 10 q=45.0 size=    5151kB time=00:00:04.02 bitrate=10493.2kbits/s speed=0.16x    frame=  260 fps= 10 q=45.0 size=    5151kB time=00:00:04.14 bitrate=10189.1kbits/s speed=0.161x    frame=  266 fps= 10 q=45.0 size=    5151kB time=00:00:04.26 bitrate=9902.2kbits/s speed=0.162x    frame=  270 fps= 10 q=45.0 size=    5151kB time=00:00:04.34 bitrate=9719.7kbits/s speed=0.162x    frame=  277 fps= 10 q=45.0 size=    5151kB time=00:00:04.48 bitrate=9416.0kbits/s speed=0.163x    frame=  284 fps= 10 q=45.0 size=    5151kB time=00:00:04.62 bitrate=9130.7kbits/s speed=0.165x    frame=  289 fps= 10 q=45.0 size=    5151kB time=00:00:04.72 bitrate=8937.3kbits/s speed=0.165x    frame=  293 fps= 10 q=45.0 size=    5151kB time=00:00:04.80 bitrate=8788.4kbits/s speed=0.165x    frame=  296 fps=9.8 q=43.0 size=    5151kB time=00:00:04.86 bitrate=8679.9kbits/s speed=0.162x    frame=  304 fps=9.9 q=46.0 size=    7001kB time=00:00:05.02 bitrate=11422.1kbits/s speed=0.164x    frame=  310 fps=9.9 q=46.0 size=    7001kB time=00:00:05.14 bitrate=11155.5kbits/s speed=0.164x    frame=  316 fps=9.9 q=46.0 size=    7001kB time=00:00:05.26 bitrate=10901.0kbits/s speed=0.165x    frame=  323 fps=9.9 q=46.0 size=    7001kB time=00:00:05.40 bitrate=10618.5kbits/s speed=0.166x    frame=  328 fps=9.9 q=46.0 size=    7001kB time=00:00:05.50 bitrate=10425.4kbits/s speed=0.166x    frame=  335 fps=9.9 q=46.0 size=    7001kB time=00:00:05.64 bitrate=10166.7kbits/s speed=0.167x    frame=  342 fps= 10 q=46.0 size=    7001kB time=00:00:05.78 bitrate=9920.5kbits/s speed=0.168x    frame=  347 fps= 10 q=46.0 size=    7001kB time=00:00:05.88 bitrate=9751.8kbits/s speed=0.169x    frame=  352 fps=9.9 q=46.0 size=    7001kB time=00:00:05.98 bitrate=9588.8kbits/s speed=0.169x    frame=  358 fps= 10 q=45.0 size=    7001kB time=00:00:06.10 bitrate=9400.2kbits/s speed=0.17x    frame=  364 fps=9.9 q=45.0 size=    7001kB time=00:00:06.22 bitrate=9218.8kbits/s speed=0.17x    frame=  371 fps=9.9 q=45.0 size=    7001kB time=00:00:06.36 bitrate=9015.9kbits/s speed=0.17x    frame=  378 fps=9.9 q=45.0 size=    7001kB time=00:00:06.50 bitrate=8821.8kbits/s speed=0.171x    frame=  384 fps= 10 q=45.0 size=    7001kB time=00:00:06.62 bitrate=8661.9kbits/s speed=0.172x    frame=  389 fps= 10 q=45.0 size=    7001kB time=00:00:06.72 bitrate=8533.0kbits/s speed=0.172x    frame=  395 fps= 10 q=45.0 size=    7001kB time=00:00:06.84 bitrate=8383.3kbits/s speed=0.173x    frame=  399 fps=9.9 q=45.0 size=    7001kB time=00:00:06.92 bitrate=8286.4kbits/s speed=0.172x    frame=  407 fps=9.9 q=45.0 size=    7001kB time=00:00:07.08 bitrate=8099.2kbits/s speed=0.173x    frame=  414 fps= 10 q=45.0 size=    7001kB time=00:00:07.22 bitrate=7942.2kbits/s speed=0.174x    frame=  418 fps=9.9 q=45.0 size=    7001kB time=00:00:07.30 bitrate=7855.1kbits/s speed=0.173x    frame=  424 fps=9.9 q=45.0 size=    7001kB time=00:00:07.42 bitrate=7728.1kbits/s speed=0.173x    frame=  431 fps=9.9 q=45.0 size=    7001kB time=00:00:07.56 bitrate=7585.0kbits/s speed=0.174x    frame=  439 fps=9.9 q=45.0 size=    7001kB time=00:00:07.72 bitrate=7427.8kbits/s speed=0.174x    frame=  445 fps=9.9 q=45.0 size=    7001kB time=00:00:07.84 bitrate=7314.2kbits/s speed=0.175x    frame=  451 fps=9.9 q=45.0 size=    7001kB time=00:00:07.96 bitrate=7203.9kbits/s speed=0.175x    frame=  456 fps=9.9 q=45.0 size=    7001kB time=00:00:08.06 bitrate=7114.5kbits/s speed=0.176x    frame=  461 fps=9.9 q=45.0 size=    7001kB time=00:00:08.16 bitrate=7027.4kbits/s speed=0.176x    frame=  467 fps=9.9 q=45.0 size=    7001kB time=00:00:08.28 bitrate=6925.5kbits/s speed=0.176x    frame=  475 fps=9.9 q=45.0 size=    7001kB time=00:00:08.44 bitrate=6794.3kbits/s speed=0.176x    frame=  483 fps= 10 q=45.0 size=    7001kB time=00:00:08.60 bitrate=6667.9kbits/s speed=0.177x    frame=  488 fps= 10 q=45.0 size=    7001kB time=00:00:08.70 bitrate=6591.2kbits/s speed=0.178x    frame=  493 fps= 10 q=45.0 size=    7001kB time=00:00:08.80 bitrate=6516.3kbits/s speed=0.178x    frame=  499 fps= 10 q=45.0 size=   12121kB time=00:00:08.92 bitrate=11130.7kbits/s speed=0.178x    frame=  500 fps=9.3 q=-1.0 Lsize=   13495kB time=00:00:09.94 bitrate=11120.5kbits/s speed=0.184x    
video:13490kB audio:0kB subtitle:0kB other streams:0kB global headers:0kB muxing overhead: 0.033473%
bench: utime=185.020s
bench: maxrss=1855016kB
[libx264 @ 0x34491c0] frame I:2     Avg QP:34.77  size:376457
[libx264 @ 0x34491c0] frame P:126   Avg QP:44.29  size: 50935
[libx264 @ 0x34491c0] frame B:372   Avg QP:46.40  size: 17856
[libx264 @ 0x34491c0] consecutive B-frames:  0.8%  0.0%  0.0% 99.2%
[libx264 @ 0x34491c0] mb I  I16..4: 17.4% 70.0% 12.6%
[libx264 @ 0x34491c0] mb P  I16..4:  2.3%  6.0%  0.1%  P16..4: 31.8%  4.2%  2.4%  0.0%  0.0%    skip:53.1%
[libx264 @ 0x34491c0] mb B  I16..4:  0.0%  0.1%  0.0%  B16..8: 37.6%  0.9%  0.1%  direct: 0.2%  skip:61.1%  L0:43.9% L1:55.8% BI: 0.3%
[libx264 @ 0x34491c0] final ratefactor: 37.21
[libx264 @ 0x34491c0] 8x8 transform intra:71.2% inter:95.2%
[libx264 @ 0x34491c0] coded y,uvDC,uvAC intra: 29.4% 57.8% 19.9% inter: 3.7% 5.5% 0.1%
[libx264 @ 0x34491c0] i16 v,h,dc,p: 38% 24%  8% 30%
[libx264 @ 0x34491c0] i8 v,h,dc,ddl,ddr,vr,hd,vl,hu: 18% 10% 30%  7%  7%  8%  7%  8%  6%
[libx264 @ 0x34491c0] i4 v,h,dc,ddl,ddr,vr,hd,vl,hu: 21% 16% 14%  9%  9%  9%  8%  7%  7%
[libx264 @ 0x34491c0] i8c dc,h,v,p: 77%  8% 13%  2%
[libx264 @ 0x34491c0] Weighted P-Frames: Y:1.6% UV:0.8%
[libx264 @ 0x34491c0] ref P L0: 70.1%  7.3% 16.5%  6.1%  0.1%
[libx264 @ 0x34491c0] ref B L0: 94.2%  4.8%  1.0%
[libx264 @ 0x34491c0] ref B L1: 98.8%  1.2%
[libx264 @ 0x34491c0] kb/s:11050.62
